# xmcd
#
# Track frame offsets:
#	150
#	14747
#	30151
#	44757
#	59336
#	78184
#	94382
#	108356
#	121569
#	136640
#	151347
#	166198
#	183006
#
# Disc length: 2664 seconds
#
# Revision: 1
# Processed by: cddbd v1.5.1PL0 Copyright (c) Steve Scherf et al.
# Submitted via: audiograbber 1.80
#
DISCID=940a660d
DTITLE=Billy Keeble - The Real Me
DYEAR=1900
DGENRE=
TTITLE0=When She Does Me Right
TTITLE1=Half A Mind
TTITLE2=Just Now Thought Of You
TTITLE3=Borrowed Angel
TTITLE4=It Always Rains On Me
TTITLE5=Neon Sun
TTITLE6=Please Sing Silver Wings Again
TTITLE7=Appearing At A Honky Tonk Near You
TTITLE8=The Memory
TTITLE9=I Can't Go Home To Heaven
TTITLE10=Damn It All
TTITLE11=If I'd Left It Up To You
TTITLE12=I'm So Afraid Of Losing You Again (with Leona Williams)
EXTD=
EXTT0=
EXTT1=
EXTT2=
EXTT3=
EXTT4=
EXTT5=
EXTT6=
EXTT7=
EXTT8=
EXTT9=
EXTT10=
EXTT11=
EXTT12=
PLAYORDER=
